<svg width="211" height="73" viewBox="0 0 211 73" fill="none" xmlns="http://www.w3.org/2000/svg">
<path d="M104.537 0C111.541 0 117.978 1.72301 123.847 5.16904C129.716 8.61506 134.304 13.2639 137.612 19.1157C140.952 24.9349 142.622 31.3393 142.622 38.3289C142.622 45.286 140.952 51.7229 137.612 57.6397C134.46 63.2773 130.146 67.7934 124.669 71.1879L110.024 69.7432L109.717 48.771C116.817 49.1899 123.014 43.8271 123.737 36.4719L123.795 35.8727C123.893 34.88 123.189 33.9849 122.223 33.8735L111.902 32.6832C110.607 30.1123 108.035 28.4696 105.256 28.399L103.568 22.7771C103.266 21.7716 101.95 21.6019 101.436 22.5023L99.3693 26.1231L95.1296 21.2591C94.445 20.4737 93.1886 20.89 93.0941 21.9336L92.2617 31.1269C92.2486 31.2714 92.2603 31.4105 92.2927 31.5407L90.7088 52.2089L71.7732 58.1446C71.685 57.9934 71.5975 57.8413 71.5108 57.6884C68.1709 51.7717 66.5009 45.3185 66.5009 38.3289C66.5009 31.5019 68.1385 25.13 71.4135 19.2132C74.6886 13.3615 79.2769 8.69634 85.1785 5.2178C91.0801 1.73927 97.5329 0 104.537 0Z" fill="#FF9A33"/>
<path fill-rule="evenodd" clip-rule="evenodd" d="M53.59 63.9112C55.6694 62.0516 57.4333 59.888 58.8816 57.4203C61.725 52.6122 63.1467 47.3791 63.1467 41.721C63.1467 36.1691 61.7645 30.9759 59.0001 26.1412C56.2357 21.28 52.3392 17.5744 47.3106 15.0242C42.2821 12.4741 36.5558 11.199 30.1319 11.199H0V72.0039H29.5395C35.3801 72.0039 40.6519 71.0155 45.3548 69.0387C40.5151 68.3299 35.2131 66.1422 31.5935 60.9363C30.8048 59.802 31.0521 58.2347 32.1459 57.4358C33.2396 56.6369 34.7656 56.9088 35.5543 58.0431C38.4534 62.2129 42.9792 63.874 47.4196 64.2251C49.6241 64.3995 51.7248 64.24 53.433 63.9394C53.4859 63.9301 53.5382 63.9207 53.59 63.9112ZM28.1968 34.469C30.9876 34.469 33.0543 35.08 34.397 36.3019C35.766 37.4973 36.4505 39.224 36.4505 41.4819C36.4505 44.0586 35.7397 45.9181 34.318 47.0603C32.8963 48.176 30.5795 48.7339 27.3675 48.7339H26.6567V34.469H28.1968Z" fill="#FF9A33"/>
<path d="M197.178 12.4741C191.886 10.9865 186.752 10.2427 181.776 10.2427C174.984 10.2427 169.073 11.5444 164.045 14.1476C158.99 16.7509 155.107 20.4698 152.395 25.3045C149.657 30.1922 148.288 35.5582 148.288 41.4022C148.288 47.9635 149.946 53.8076 153.264 58.9344C156.634 64.0878 161.004 67.7138 166.375 69.8123C171.825 71.9374 178.867 73 187.503 73C188.345 73 189.504 72.9734 190.978 72.9203C192.452 72.8937 194.256 72.8273 196.388 72.7211L209.539 72.0835V39.2904H182.843V48.8135C179.525 48.8135 177.09 48.2291 175.537 47.0603C173.983 45.865 173.207 43.9789 173.207 41.4022C173.207 38.7724 174.128 36.6871 175.971 35.1464C177.814 33.5526 180.249 32.7557 183.277 32.7557C187.805 32.7557 192.755 34.0573 198.126 36.6606L211 18.3713C209.025 17.1494 206.88 16.047 204.563 15.0641C202.272 14.0812 199.811 13.2179 197.178 12.4741Z" fill="#FF9A33"/>
</svg>
