<svg width="312" height="302" viewBox="0 0 312 302" fill="none" xmlns="http://www.w3.org/2000/svg">
<path d="M92.201 162.576C85.6558 161.622 80.7822 163.116 69.478 170.316C64.7966 174.395 65.1662 177.649 68.6375 179.988C72.1088 182.327 85.3398 183.484 85.3398 183.484C88.2119 184.355 90.5465 187.487 90.836 187.763C94.031 190.807 101.653 189.997 102.292 184.444C103.946 175.541 99.682 165.277 92.201 162.576Z" fill="white"/>
<ellipse cx="91.5806" cy="145.668" rx="7.5" ry="10" transform="rotate(16.8653 91.5806 145.668)" fill="white"/>
<ellipse cx="109.423" cy="152.991" rx="7.5" ry="10.6255" transform="rotate(45.7502 109.423 152.991)" fill="white"/>
<ellipse cx="114.288" cy="170.216" rx="6.86871" ry="9.73113" transform="rotate(54.0432 114.288 170.216)" fill="white"/>
<ellipse cx="73.6905" cy="153.316" rx="7.41594" ry="9.20791" transform="rotate(-13.003 73.6905 153.316)" fill="white"/>
<path d="M227.577 128.73C221.159 127.13 216.161 128.131 204.197 134.171C199.132 137.763 199.176 141.039 202.398 143.711C205.619 146.384 218.669 148.852 218.669 148.852C221.44 150.005 223.452 153.353 223.712 153.657C226.588 157.004 234.253 156.956 235.441 151.494C237.973 142.8 234.752 132.163 227.577 128.73Z" fill="white"/>
<ellipse cx="228.642" cy="111.845" rx="7.5" ry="10" transform="rotate(22.5768 228.642 111.845)" fill="white"/>
<ellipse cx="245.668" cy="120.907" rx="7.5" ry="10.6255" transform="rotate(51.4618 245.668 120.907)" fill="white"/>
<ellipse cx="248.794" cy="138.531" rx="6.86871" ry="9.73113" transform="rotate(59.7547 248.794 138.531)" fill="white"/>
<ellipse cx="210.08" cy="117.675" rx="7.41594" ry="9.20791" transform="rotate(-7.29144 210.08 117.675)" fill="white"/>
<path d="M38.1963 267.556C31.6612 266.536 26.7726 267.98 15.3953 275.064C10.6725 279.095 11.0087 282.353 14.456 284.727C17.9032 287.101 31.1216 288.394 31.1216 288.394C33.9847 289.294 36.2871 292.45 36.5738 292.728C39.7375 295.805 47.3674 295.073 48.0629 289.527C49.8079 280.641 45.6493 270.334 38.1963 267.556Z" fill="white"/>
<ellipse cx="37.7489" cy="250.644" rx="7.5" ry="10" transform="rotate(17.4513 37.7489 250.644)" fill="white"/>
<ellipse cx="55.5159" cy="258.149" rx="7.5" ry="10.6255" transform="rotate(46.3362 55.5159 258.149)" fill="white"/>
<ellipse cx="60.2044" cy="275.423" rx="6.86871" ry="9.73113" transform="rotate(54.6292 60.2044 275.423)" fill="white"/>
<ellipse cx="19.7815" cy="258.108" rx="7.41594" ry="9.20791" transform="rotate(-12.417 19.7815 258.108)" fill="white"/>
<path d="M181.168 243.416C174.727 241.913 169.744 242.989 157.872 249.207C152.862 252.875 152.955 256.15 156.216 258.774C159.477 261.398 172.563 263.67 172.563 263.67C175.351 264.78 177.412 268.099 177.678 268.398C180.604 271.702 188.267 271.539 189.373 266.06C191.774 257.328 188.394 246.741 181.168 243.416Z" fill="white"/>
<ellipse cx="181.98" cy="226.517" rx="7.5" ry="10" transform="rotate(21.7169 181.98 226.517)" fill="white"/>
<ellipse cx="199.139" cy="235.323" rx="7.5" ry="10.6255" transform="rotate(50.6018 199.139 235.323)" fill="white"/>
<ellipse cx="202.53" cy="252.898" rx="6.86871" ry="9.73113" transform="rotate(58.8948 202.53 252.898)" fill="white"/>
<ellipse cx="163.507" cy="232.624" rx="7.41594" ry="9.20791" transform="rotate(-8.15136 163.507 232.624)" fill="white"/>
<path d="M156.018 39.8052C149.988 37.0859 144.892 37.1793 132.042 40.9879C126.418 43.6194 125.877 46.8501 128.57 50.0545C131.263 53.2589 143.663 58.0155 143.663 58.0155C146.185 59.6436 147.566 63.2974 147.769 63.6424C150.002 67.4491 157.552 68.7696 159.695 63.6067C163.738 55.5036 162.465 44.4626 156.018 39.8052Z" fill="white"/>
<ellipse cx="160.078" cy="23.381" rx="7.5" ry="10" transform="rotate(32.8523 160.078 23.381)" fill="white"/>
<ellipse cx="175.214" cy="35.3347" rx="7.5" ry="10.6255" transform="rotate(61.7373 175.214 35.3347)" fill="white"/>
<ellipse cx="175.147" cy="53.2337" rx="6.86871" ry="9.73113" transform="rotate(70.0302 175.147 53.2337)" fill="white"/>
<ellipse cx="140.773" cy="25.8055" rx="7.41594" ry="9.20791" transform="rotate(2.98406 140.773 25.8055)" fill="white"/>
<path d="M270.184 36.5C263.682 35.2834 258.752 36.579 247.167 43.3177C242.325 47.2042 242.563 50.4712 245.937 52.9481C249.311 55.425 262.485 57.115 262.485 57.115C265.319 58.1008 267.526 61.3244 267.804 61.6118C270.873 64.7826 278.522 64.2806 279.384 58.7573C281.396 49.9282 277.55 39.5011 270.184 36.5Z" fill="white"/>
<ellipse cx="270.246" cy="19.5816" rx="7.5" ry="10" transform="rotate(19.1767 270.246 19.5816)" fill="white"/>
<ellipse cx="287.779" cy="27.618" rx="7.5" ry="10.6255" transform="rotate(48.0617 287.779 27.618)" fill="white"/>
<ellipse cx="291.945" cy="45.0254" rx="6.86871" ry="9.73113" transform="rotate(56.3547 291.945 45.0254)" fill="white"/>
<ellipse cx="252.062" cy="26.5014" rx="7.41594" ry="9.20791" transform="rotate(-10.6915 252.062 26.5014)" fill="white"/>
</svg>
