<svg width="93" height="93" viewBox="0 0 93 93" fill="none" xmlns="http://www.w3.org/2000/svg">
<path d="M0 44.64C0 23.5964 0 13.0748 6.53738 6.53738C13.0748 0 23.5964 0 44.64 0H48.36C69.4036 0 79.9252 0 86.4627 6.53738C93 13.0748 93 23.5964 93 44.64V48.36C93 69.4036 93 79.9252 86.4627 86.4627C79.9252 93 69.4036 93 48.36 93H44.64C23.5964 93 13.0748 93 6.53738 86.4627C0 79.9252 0 69.4036 0 48.36V44.64Z" fill="url(#paint0_linear_148_20)"/>
<path d="M34.2252 65.0644L35.0766 65.4853C38.6245 67.5892 42.5979 68.5711 46.5714 68.5711C59.0594 68.5711 69.2769 58.472 69.2769 46.1286C69.2769 40.2375 66.8643 34.4866 62.6072 30.2786C58.3499 26.0706 52.6733 23.6862 46.5714 23.6862C34.0834 23.6862 23.8658 33.7853 24.0078 46.269C24.0078 50.4768 25.285 54.5447 27.4135 58.0511L27.9811 58.8928L25.7107 67.1685L34.2252 65.0644Z" fill="white"/>
<path d="M65.0195 28.0343C60.1946 23.1251 53.5249 20.46 46.7132 20.46C32.2386 20.46 20.602 32.102 20.7438 46.2688C20.7438 50.7573 22.021 55.1057 24.1497 59.033L20.46 72.3582L34.2252 68.8516C38.0567 70.9557 42.3139 71.9376 46.5714 71.9376C60.9042 71.9376 72.5408 60.2954 72.5408 46.1288C72.5408 39.2557 69.8442 32.8034 65.0195 28.0343ZM46.7132 67.5894C42.8817 67.5894 39.0501 66.6077 35.7862 64.644L34.9348 64.2231L26.7041 66.327L28.8327 58.332L28.2651 57.4903C22.021 47.5315 25.0011 34.3463 35.2186 28.1745C45.436 22.0029 58.6336 24.9485 64.8777 35.0476C71.1216 45.1467 68.1415 58.1915 57.9242 64.3632C54.6601 66.4672 50.6867 67.5894 46.7132 67.5894ZM59.2012 52.0201L57.6402 51.3187C57.6402 51.3187 55.3699 50.3368 53.9507 49.6355C53.8087 49.6355 53.6669 49.4951 53.5249 49.4951C53.0991 49.4951 52.8153 49.6355 52.5315 49.7758C52.5315 49.7758 52.3897 49.916 50.4029 52.1602C50.2609 52.4407 49.9772 52.5811 49.6934 52.5811H49.5514C49.4096 52.5811 49.1258 52.4407 48.9838 52.3006L48.2742 52.0201C46.7132 51.3187 45.2942 50.477 44.1588 49.3549C43.875 49.0744 43.4493 48.7939 43.1655 48.5134C42.1721 47.5315 41.1787 46.4093 40.4693 45.1469L40.3273 44.8664C40.1855 44.7261 40.1855 44.5859 40.0435 44.3054C40.0435 44.0249 40.0435 43.7444 40.1855 43.604C40.1855 43.604 40.7531 42.9027 41.1787 42.482C41.4627 42.2013 41.6045 41.7806 41.8883 41.5001C42.1721 41.0793 42.3141 40.5182 42.1721 40.0974C42.0303 39.396 40.3273 35.6088 39.9017 34.7673C39.6177 34.3465 39.3341 34.2063 38.9083 34.066H37.3473C37.0633 34.066 36.7798 34.2063 36.4958 34.2063L36.3538 34.3465C36.07 34.4868 35.7862 34.7673 35.5024 34.9075C35.2186 35.1882 35.0766 35.4685 34.7928 35.7492C33.7994 37.0116 33.2318 38.5545 33.2318 40.0974C33.2318 41.2194 33.5156 42.3416 33.9414 43.3235L34.0834 43.7444C35.3606 46.4093 37.0633 48.7939 39.3341 50.8978L39.9017 51.4589C40.3273 51.8797 40.7531 52.1602 41.0369 52.5809C44.017 55.1059 47.4228 56.9293 51.2543 57.9112C51.6801 58.0513 52.2477 58.0513 52.6735 58.1917H54.0925C54.8021 58.1917 55.6535 57.9112 56.2213 57.6306C56.6469 57.3501 56.9307 57.3501 57.2144 57.0696L57.4984 56.7889C57.7822 56.5084 58.066 56.3683 58.3498 56.0877C58.6336 55.8072 58.9174 55.5267 59.0594 55.246C59.3432 54.685 59.485 53.9836 59.627 53.2825V52.3006C59.627 52.3006 59.485 52.1602 59.2012 52.0201Z" fill="black"/>
<defs>
<linearGradient id="paint0_linear_148_20" x1="46.5" y1="0" x2="46.5" y2="93" gradientUnits="userSpaceOnUse">
<stop stop-color="white"/>
<stop offset="0.765625" stop-color="white"/>
</linearGradient>
</defs>
</svg>
