<svg width="56" height="21" viewBox="0 0 56 21" fill="none" xmlns="http://www.w3.org/2000/svg">
<path d="M54.9391 6.82355C55.3656 6.65673 56 6.81279 56 7.07648V18.0813C56 19.5074 53.6484 20.6644 50.75 20.6644H5.25C2.35156 20.6644 0 19.5074 0 18.0813V7.08186C0 6.81279 0.623438 6.66211 1.06094 6.82893C3.51094 7.76529 6.75937 8.95457 17.9156 12.9421C20.2234 13.7709 24.1172 15.5144 28 15.5037C31.9047 15.5198 35.875 13.7386 38.0953 12.9421C49.2516 8.95457 52.4891 7.75991 54.9391 6.82355ZM28 13.7763C30.5375 13.7978 34.1906 12.2049 36.0281 11.5484C50.5422 6.36614 51.6469 5.9141 54.9937 4.62258C55.6281 4.38042 56 4.00373 56 3.60551V2.58305C56 1.15699 53.6484 0 50.75 0H5.25C2.35156 0 0 1.15699 0 2.58305V3.60551C0 4.00373 0.371875 4.37504 1.00625 4.62258C4.35313 5.90872 5.45781 6.36614 19.9719 11.5484C21.8094 12.2049 25.4625 13.7978 28 13.7763Z" fill="#0D074E"/>
</svg>
