<svg width="103" height="86" viewBox="0 0 103 86" fill="none" xmlns="http://www.w3.org/2000/svg">
<path d="M0 41.28C0 21.8203 0 12.0906 7.24032 6.04532C14.4806 0 26.1337 0 49.44 0H53.56C76.8663 0 88.5193 0 95.7597 6.04532C103 12.0906 103 21.8203 103 41.28V44.72C103 64.1796 103 73.9093 95.7597 79.9547C88.5193 86 76.8663 86 53.56 86H49.44C26.1337 86 14.4806 86 7.24032 79.9547C0 73.9093 0 64.1796 0 44.72V41.28Z" fill="black"/>
<path d="M37.9053 60.1671L38.8483 60.5563C42.7777 62.5018 47.1783 63.4098 51.5791 63.4098C65.4099 63.4098 76.726 54.0709 76.726 42.6566C76.726 37.2089 74.054 31.8909 69.3391 27.9996C64.624 24.1083 58.3371 21.9033 51.5791 21.9033C37.7483 21.9033 26.432 31.2423 26.5892 42.7864C26.5892 46.6775 28.0038 50.4392 30.3612 53.6817L30.9898 54.46L28.4753 62.1128L37.9053 60.1671Z" fill="black"/>
<path d="M72.0109 25.9242C66.6671 21.3845 59.2803 18.92 51.7361 18.92C35.7051 18.92 22.8173 29.6857 22.9743 42.7862C22.9743 46.9369 24.3888 50.9579 26.7465 54.5896L22.66 66.9119L37.9053 63.6692C42.1489 65.6149 46.8637 66.5229 51.5791 66.5229C67.453 66.5229 80.3409 55.757 80.3409 42.6567C80.3409 36.3009 77.3544 30.3343 72.0109 25.9242ZM51.7361 62.502C47.4926 62.502 43.2491 61.5942 39.6341 59.7783L38.6912 59.3891L29.5755 61.3346L31.933 53.9414L31.3043 53.1631C24.3888 43.9539 27.6894 31.7611 39.0055 26.0538C50.3216 20.3468 64.9383 23.0707 71.8538 32.4096C78.7691 41.7486 75.4685 53.8115 64.1526 59.5187C60.5375 61.4642 56.1369 62.502 51.7361 62.502ZM65.5669 48.1046L63.8381 47.456C63.8381 47.456 61.3236 46.548 59.7518 45.8995C59.5946 45.8995 59.4375 45.7697 59.2803 45.7697C58.8087 45.7697 58.4944 45.8995 58.1801 46.0292C58.1801 46.0292 58.023 46.1589 55.8226 48.2342C55.6653 48.4936 55.351 48.6234 55.0367 48.6234H54.8795C54.7224 48.6234 54.4081 48.4936 54.2508 48.364L53.465 48.1046C51.7361 47.456 50.1646 46.6776 48.9071 45.6401C48.5928 45.3807 48.1212 45.1213 47.8069 44.8619C46.7067 43.9539 45.6065 42.9161 44.8208 41.7488L44.6636 41.4894C44.5065 41.3596 44.5065 41.23 44.3493 40.9706C44.3493 40.7112 44.3493 40.4518 44.5065 40.322C44.5065 40.322 45.1351 39.6734 45.6065 39.2844C45.921 39.0249 46.0781 38.6358 46.3924 38.3765C46.7067 37.9873 46.864 37.4685 46.7067 37.0793C46.5497 36.4307 44.6636 32.9286 44.1922 32.1504C43.8777 31.7612 43.5636 31.6316 43.092 31.5018H41.3632C41.0487 31.5018 40.7346 31.6316 40.42 31.6316L40.2628 31.7612C39.9484 31.891 39.6341 32.1504 39.3198 32.28C39.0055 32.5396 38.8483 32.7988 38.5339 33.0584C37.4337 34.2258 36.8051 35.6525 36.8051 37.0793C36.8051 38.1169 37.1194 39.1546 37.591 40.0626L37.7483 40.4518C39.1628 42.9161 41.0487 45.1213 43.5636 47.0668L44.1922 47.5856C44.6636 47.9748 45.1351 48.2342 45.4495 48.6232C48.7501 50.9581 52.522 52.6443 56.7655 53.5522C57.2371 53.6819 57.8658 53.6819 58.3373 53.8116H59.9089C60.6948 53.8116 61.6377 53.5522 62.2666 53.2929C62.7379 53.0335 63.0522 53.0335 63.3665 52.7741L63.6811 52.5145C63.9954 52.2551 64.3097 52.1255 64.624 51.8661C64.9383 51.6067 65.2526 51.3473 65.4099 51.0877C65.7242 50.5689 65.8812 49.9204 66.0385 49.272V48.364C66.0385 48.364 65.8812 48.2342 65.5669 48.1046Z" fill="white"/>
</svg>
