<svg width="56" height="29" viewBox="0 0 56 29" fill="none" xmlns="http://www.w3.org/2000/svg">
<path d="M54.9391 9.57604C55.3656 9.34193 56 9.56094 56 9.93099V25.375C56 27.3763 53.6484 29 50.75 29H5.25C2.35156 29 0 27.3763 0 25.375V9.93854C0 9.56094 0.623437 9.34948 1.06094 9.58359C3.51094 10.8977 6.75938 12.5667 17.9156 18.1628C20.2234 19.3258 24.1172 21.7727 28 21.7576C31.9047 21.7802 35.875 19.2805 38.0953 18.1628C49.2516 12.5667 52.4891 10.8901 54.9391 9.57604ZM28 19.3333C30.5375 19.3635 34.1906 17.1281 36.0281 16.2068C50.5422 8.93412 51.6469 8.29974 54.9937 6.48724C55.6281 6.1474 56 5.61875 56 5.0599V3.625C56 1.6237 53.6484 0 50.75 0H5.25C2.35156 0 0 1.6237 0 3.625V5.0599C0 5.61875 0.371875 6.13984 1.00625 6.48724C4.35313 8.29219 5.45781 8.93412 19.9719 16.2068C21.8094 17.1281 25.4625 19.3635 28 19.3333Z" fill="white"/>
</svg>
