<svg width="93" height="93" viewBox="0 0 93 93" fill="none" xmlns="http://www.w3.org/2000/svg">
<path fill-rule="evenodd" clip-rule="evenodd" d="M27.3293 0.279C32.2879 0.0507272 33.8689 0 46.5 0C59.1311 0 60.7121 0.0549545 65.6665 0.279C70.6208 0.503045 74.0026 1.29355 76.9617 2.43914C80.0603 3.61009 82.8714 5.4405 85.1964 7.80777C87.5637 10.1285 89.3899 12.9355 90.5566 16.0383C91.7065 18.9974 92.4927 22.3792 92.721 27.3251C92.9493 32.2921 93 33.8731 93 46.5C93 59.1311 92.945 60.7121 92.721 65.6707C92.497 70.6166 91.7065 73.9984 90.5566 76.9575C89.3899 80.0607 87.5607 82.8723 85.1964 85.1964C82.8714 87.5637 80.0603 89.3899 76.9617 90.5566C74.0026 91.7065 70.6208 92.4927 65.6749 92.721C60.7121 92.9493 59.1311 93 46.5 93C33.8689 93 32.2879 92.945 27.3293 92.721C22.3834 92.497 19.0016 91.7065 16.0425 90.5566C12.9393 89.3898 10.1278 87.5606 7.80355 85.1964C5.43788 82.8743 3.60719 80.0641 2.43914 76.9617C1.29355 74.0026 0.507273 70.6208 0.279 65.6749C0.0507272 60.7079 0 59.1269 0 46.5C0 33.8689 0.0549545 32.2879 0.279 27.3335C0.503045 22.3792 1.29355 18.9974 2.43914 16.0383C3.60892 12.9358 5.441 10.1256 7.80777 7.80355C10.1287 5.43839 12.9374 3.60774 16.0383 2.43914C18.9974 1.29355 22.3792 0.507273 27.3251 0.279H27.3293ZM65.2902 8.649C60.3866 8.42495 58.9155 8.37846 46.5 8.37846C34.0845 8.37846 32.6134 8.42495 27.7098 8.649C23.1739 8.85614 20.7136 9.61282 19.0735 10.2511C16.9049 11.0966 15.3535 12.0985 13.726 13.726C12.1832 15.2269 10.9959 17.054 10.2511 19.0735C9.61282 20.7136 8.85614 23.1739 8.649 27.7098C8.42495 32.6134 8.37846 34.0845 8.37846 46.5C8.37846 58.9155 8.42495 60.3866 8.649 65.2902C8.85614 69.8261 9.61282 72.2864 10.2511 73.9266C10.9951 75.943 12.183 77.7734 13.726 79.274C15.2266 80.817 17.057 82.0049 19.0735 82.7489C20.7136 83.3872 23.1739 84.1439 27.7098 84.351C32.6134 84.575 34.0803 84.6215 46.5 84.6215C58.9197 84.6215 60.3866 84.575 65.2902 84.351C69.8261 84.1439 72.2864 83.3872 73.9266 82.7489C76.0951 81.9034 77.6465 80.9015 79.274 79.274C80.817 77.7734 82.0049 75.943 82.7489 73.9266C83.3872 72.2864 84.1439 69.8261 84.351 65.2902C84.575 60.3866 84.6215 58.9155 84.6215 46.5C84.6215 34.0845 84.575 32.6134 84.351 27.7098C84.1439 23.1739 83.3872 20.7136 82.7489 19.0735C81.9034 16.9049 80.9015 15.3535 79.274 13.726C77.7731 12.1833 75.9459 10.996 73.9266 10.2511C72.2864 9.61282 69.8261 8.85614 65.2902 8.649ZM40.5607 60.8347C43.8777 62.2154 47.5711 62.4018 51.0102 61.3619C54.4493 60.322 57.4207 58.1204 59.4169 55.1331C61.4131 52.1458 62.3102 48.5581 61.9551 44.9828C61.6 41.4076 60.0146 38.0665 57.4698 35.5302C55.8475 33.909 53.8859 32.6676 51.7263 31.8954C49.5667 31.1232 47.2627 30.8395 44.9803 31.0646C42.6978 31.2897 40.4937 32.0181 38.5265 33.1973C36.5594 34.3765 34.8781 35.9772 33.6039 37.8842C32.3296 39.7911 31.494 41.9569 31.1572 44.2256C30.8204 46.4942 30.9908 48.8093 31.6561 51.0042C32.3214 53.1991 33.4651 55.2192 35.0049 56.919C36.5446 58.6189 38.4421 59.9562 40.5607 60.8347ZM29.5994 29.5994C31.8188 27.3799 34.4536 25.6194 37.3534 24.4183C40.2533 23.2171 43.3613 22.5989 46.5 22.5989C49.6387 22.5989 52.7467 23.2171 55.6466 24.4183C58.5464 25.6194 61.1812 27.3799 63.4006 29.5994C65.6201 31.8188 67.3806 34.4536 68.5817 37.3534C69.7829 40.2533 70.4011 43.3613 70.4011 46.5C70.4011 49.6387 69.7829 52.7467 68.5817 55.6466C67.3806 58.5464 65.6201 61.1812 63.4006 63.4006C58.9183 67.883 52.839 70.4011 46.5 70.4011C40.161 70.4011 34.0817 67.883 29.5994 63.4006C25.117 58.9183 22.5989 52.839 22.5989 46.5C22.5989 40.161 25.117 34.0817 29.5994 29.5994ZM75.702 26.1584C76.252 25.6395 76.6923 25.0157 76.9968 24.3236C77.3014 23.6316 77.464 22.8855 77.475 22.1295C77.486 21.3735 77.3452 20.623 77.061 19.9223C76.7767 19.2217 76.3548 18.5852 75.8202 18.0506C75.2856 17.516 74.6491 17.0941 73.9485 16.8098C73.2479 16.5256 72.4973 16.3848 71.7413 16.3958C70.9853 16.4068 70.2392 16.5694 69.5472 16.874C68.8552 17.1785 68.2313 17.6188 67.7124 18.1688C66.7034 19.2384 66.151 20.6592 66.1725 22.1295C66.1939 23.5998 66.7875 25.0038 67.8272 26.0436C68.867 27.0833 70.2711 27.6769 71.7413 27.6984C73.2116 27.7198 74.6324 27.1674 75.702 26.1584Z" fill="white"/>
</svg>
